<?xml version="1.0" standalone="no"?>
<!DOCTYPE svg PUBLIC "-//W3C//DTD SVG 20010904//EN"
 "http://www.w3.org/TR/2001/REC-SVG-20010904/DTD/svg10.dtd">
<svg version="1.0" xmlns="http://www.w3.org/2000/svg"
 width="700.000000pt" height="700.000000pt" viewBox="0 0 700.000000 700.000000"
 preserveAspectRatio="xMidYMid meet">
<metadata>
Created by potrace 1.11, written by Peter Selinger 2001-2013
</metadata>
<g transform="translate(0.000000,700.000000) scale(0.100000,-0.100000)"
fill="#000000" stroke="none">
<path d="M1954 5104 c-24 -35 -28 -156 -9 -202 41 -95 97 53 65 169 -15 55
-35 67 -56 33z"/>
<path d="M1536 5002 c-22 -37 57 -186 111 -211 31 -14 36 -10 35 26 -2 86
-117 231 -146 185z"/>
<path d="M2343 4976 c-53 -59 -91 -157 -73 -186 23 -37 119 65 139 147 16 62
14 73 -13 73 -15 0 -35 -13 -53 -34z"/>
<path d="M1873 4734 c-180 -37 -332 -191 -366 -373 l-10 -56 -76 38 c-336 166
-737 -31 -817 -401 -16 -76 -17 -78 -66 -107 -197 -119 -289 -368 -219 -595
53 -172 215 -316 391 -349 34 -6 274 -9 640 -8 l585 2 65 24 c134 49 235 141
295 266 53 109 66 247 35 356 -13 45 -12 48 8 23 22 -26 53 -43 70 -37 46 17
-64 223 -119 223 -20 0 -30 -30 -17 -56 5 -10 -6 -1 -24 21 -45 53 -100 105
-113 105 -5 0 18 14 52 30 232 113 331 403 216 637 -97 199 -310 302 -530 257z
m-543 -468 c198 -73 322 -267 307 -484 -5 -74 -4 -85 14 -103 19 -19 51 -19
71 0 10 9 28 103 22 113 -5 8 -1 9 81 13 172 7 336 -109 396 -282 28 -82 22
-209 -14 -287 -53 -116 -131 -187 -248 -227 -63 -21 -74 -22 -634 -22 -509 0
-576 2 -629 17 -71 21 -124 53 -183 112 -125 125 -148 345 -51 497 134 211
439 256 618 90 35 -32 57 -37 85 -19 39 26 32 58 -22 106 -96 83 -222 124
-356 118 l-78 -3 6 32 c19 105 108 225 214 290 108 68 277 84 401 39z"/>
<path d="M1233 4704 c-22 -9 6 -60 50 -91 75 -52 139 -72 163 -52 12 10 12 16
-3 38 -21 33 -37 46 -93 75 -48 25 -98 38 -117 30z"/>
<path d="M2624 4686 c-99 -45 -158 -124 -99 -132 53 -8 226 111 198 136 -20
18 -51 17 -99 -4z"/>
<path d="M3711 4580 c-4 -3 -7 -114 -6 -247 l0 -242 -45 48 c-73 78 -140 104
-267 104 -48 -1 -77 -8 -125 -30 -155 -74 -239 -242 -233 -470 4 -174 42 -272
140 -369 70 -69 140 -98 236 -96 110 1 179 30 249 103 l46 48 -1 -65 -1 -64
76 0 75 0 1 640 c0 352 -3 640 -6 641 -29 3 -134 3 -139 -1z m-142 -498 c163
-100 184 -476 36 -617 -96 -90 -262 -77 -341 28 -47 62 -67 128 -72 242 -10
246 93 390 272 379 44 -3 72 -11 105 -32z"/>
<path d="M6143 4582 l-33 -3 0 -640 0 -639 78 0 78 0 -1 220 c0 121 3 219 7
218 4 -2 85 -77 179 -168 95 -91 197 -189 228 -217 l56 -53 97 0 97 0 -38 38
c-21 20 -135 131 -254 245 l-216 209 82 71 c45 40 98 86 117 103 19 18 78 69
130 115 151 132 158 139 138 140 -23 1 -132 1 -157 0 -10 -1 -65 -42 -122 -92
-57 -51 -123 -108 -145 -128 -23 -20 -72 -63 -109 -96 -37 -33 -72 -63 -79
-67 -8 -5 -11 88 -11 368 0 244 -3 374 -10 375 -47 3 -85 4 -112 1z"/>
<path d="M2655 4303 c-43 -9 -75 -26 -75 -40 0 -39 153 -59 224 -29 42 18 45
30 12 51 -24 16 -122 27 -161 18z"/>
<path d="M5439 4238 c-158 -20 -258 -119 -260 -257 -3 -148 72 -221 276 -270
212 -51 253 -75 262 -155 17 -148 -221 -201 -463 -102 l-84 34 0 -78 0 -78 78
-21 c292 -78 546 -17 608 146 24 63 23 157 -4 208 -44 86 -114 125 -302 170
-167 39 -233 81 -224 143 1 6 2 21 3 32 2 35 52 80 106 94 44 11 193 13 235 3
52 -13 80 -22 116 -38 l41 -17 -1 71 -1 72 -50 16 c-90 30 -231 41 -336 27z"/>
<path d="M4167 4222 c-14 -3 -16 -36 -15 -314 1 -343 9 -407 57 -493 69 -122
243 -172 396 -114 41 15 76 38 113 76 29 29 54 53 56 53 1 0 1 -29 -1 -65 l-3
-65 78 0 77 0 0 455 c0 344 -3 458 -12 463 -7 4 -29 7 -50 6 -21 -1 -50 -3
-64 -3 l-26 -1 0 -288 c0 -322 -7 -366 -66 -437 -65 -80 -201 -109 -294 -64
-97 47 -106 86 -109 474 -1 171 -2 312 -3 315 -1 5 -108 7 -134 2z"/>
<path d="M2497 3964 c-12 -12 22 -60 60 -87 70 -48 153 -72 167 -48 12 18 -41
76 -99 108 -55 30 -112 42 -128 27z"/>
</g>
</svg>
